<?xml version="1.0" encoding="UTF-8"?>
<!DOCTYPE svg PUBLIC "-//W3C//DTD SVG 1.1//EN" "http://www.w3.org/Graphics/SVG/1.1/DTD/svg11.dtd">
<!-- Creator: CorelDRAW 2019 (64-Bit) -->
<svg xmlns="http://www.w3.org/2000/svg" xml:space="preserve" width="3.02083in" height="1.35824in" version="1.1" style="shape-rendering:geometricPrecision; text-rendering:geometricPrecision; image-rendering:optimizeQuality; fill-rule:evenodd; clip-rule:evenodd"
viewBox="0 0 3020.42 1358.05"
 xmlns:xlink="http://www.w3.org/1999/xlink"
 xmlns:xodm="http://www.corel.com/coreldraw/odm/2003">
 <defs>
  <style type="text/css">
   <![CDATA[
    .fil0 {fill:#01D063}
    .fil2 {fill:#383E4C}
    .fil1 {fill:#FF8A12}
   ]]>
  </style>
 </defs>
 <g id="Layer_x0020_1">
  <metadata id="CorelCorpID_0Corel-Layer"/>
  <polygon class="fil0" points="1155.32,1153.14 26.99,1153.14 26.99,1294.85 1155.32,1294.85 "/>
  <polygon class="fil1" points="1155.32,1153.14 1155.32,1294.85 3020.41,1294.85 3020.41,1153.14 "/>
  <path class="fil2" d="M242.75 1036.3l0 -681.4 -215.76 0 0 681.4 215.76 0zm1016.92 116.83c-5.48,-9.05 -12.17,-17.46 -20.07,-25.22 -25.81,-25.3 -58.31,-38 -97.49,-38 -40.15,0 -72.9,12.7 -98.21,38 -7.75,7.76 -14.32,16.16 -19.7,25.22 -12.2,20.52 -18.29,44.38 -18.29,71.58 0,26.71 5.88,50.09 17.65,70.14 5.5,9.36 12.28,18 20.35,25.91 25.31,24.87 58.06,37.28 98.21,37.28 39.19,0 71.69,-12.67 97.49,-38 7.94,-7.79 14.66,-16.19 20.15,-25.2 12.38,-20.29 18.57,-43.67 18.57,-70.14 0,-27.2 -6.22,-51.05 -18.65,-71.58zm1177.07 -770.55c-48.74,30.78 -86.82,73.6 -114.28,128.47 -27.44,54.9 -41.18,116.41 -41.18,184.56 0,69.08 13.73,130.84 41.18,185.25 27.46,54.43 65.77,97.02 114.97,127.77 49.2,30.74 104.6,46.14 166.1,46.14 44.48,0 84.22,-8.76 119.26,-26.26 35,-17.51 61.95,-42.82 80.91,-75.96l5.68 0 8.51 83.76 202.52 0 0 -993.71 -215.29 0 0 396.07 -4.26 0c-19.88,-33.12 -47.08,-58.42 -81.61,-75.94 -34.55,-17.51 -74.07,-26.27 -118.55,-26.27 -60.56,0 -115.22,15.4 -163.95,46.14zm64.6 313.03c0,-47.32 13.94,-86.12 41.88,-116.41 27.87,-30.28 65.49,-45.43 112.86,-45.43 47.3,0 85.16,15.15 113.56,45.43 28.4,30.3 42.59,69.1 42.59,116.41 0,47.33 -14.19,86.37 -42.59,117.11 -28.4,30.77 -66.25,46.14 -113.56,46.14 -46.38,0 -83.76,-15.37 -112.16,-46.14 -28.4,-30.73 -42.58,-69.78 -42.58,-117.11zm-851.03 -313.03c-48.75,30.78 -87.07,73.6 -114.98,128.47 -27.93,54.9 -41.87,116.41 -41.87,184.56 0,68.13 13.94,129.66 41.87,184.55 27.91,54.89 66.24,97.72 114.98,128.47 48.73,30.74 103.84,46.14 165.39,46.14 45.43,0 85.63,-8.76 120.66,-26.26 35,-17.51 61.95,-42.82 80.92,-75.96l5.66 0 8.51 83.76 200.17 0 0 -681.4 -200.17 0 -8.51 83.76 -5.66 0c-18.97,-33.12 -45.93,-58.42 -80.92,-75.94 -35.03,-17.51 -75.24,-26.27 -120.66,-26.27 -61.55,0 -116.66,15.4 -165.39,46.14zm64.6 313.03c0,-47.32 13.94,-86.12 41.88,-116.41 27.88,-30.28 65.49,-45.43 112.86,-45.43 47.3,0 85.15,15.15 113.55,45.43 28.4,30.3 42.59,69.1 42.59,116.41 0,47.33 -14.19,86.37 -42.59,117.11 -28.4,30.77 -66.25,46.14 -113.55,46.14 -46.38,0 -83.77,-15.37 -112.17,-46.14 -28.39,-30.73 -42.58,-69.78 -42.58,-117.11zm-806.33 -298.12c-53.92,40.7 -80.91,94.64 -80.91,161.83 0,55.86 18.93,101.75 56.8,137.7 37.84,35.98 93.2,58.2 166.08,66.72l93.71 9.94c37.84,4.75 64.33,11.59 79.5,20.58 15.11,9.01 22.7,22.49 22.7,40.45 0,20.83 -8.51,36.69 -25.55,47.56 -17.03,10.89 -42.12,16.31 -75.24,16.31 -33.14,0 -59.62,-6.38 -79.49,-19.16 -19.89,-12.78 -30.76,-30.03 -32.66,-51.81l-208.68 0c4.75,70.97 34.55,126.58 89.45,166.79 54.87,40.24 132.46,60.34 232.79,60.34 99.38,0 176.27,-20.34 230.69,-61.04 54.43,-40.68 81.63,-97.46 81.63,-170.34 0,-58.68 -18.69,-105.28 -56.06,-139.84 -37.4,-34.54 -91.57,-55.59 -162.55,-63.17l-93.71 -11.36c-38.81,-3.77 -65.99,-10.15 -81.61,-19.16 -15.62,-8.98 -23.44,-21.05 -23.44,-36.2 0,-17.97 8.52,-32.16 25.55,-42.59 17.03,-10.4 41.63,-15.61 73.83,-15.61 65.32,0 100.3,24.61 105.05,73.82l205.83 0c-4.73,-75.7 -32.9,-133.44 -84.45,-173.2 -51.59,-39.75 -126.58,-59.61 -225.02,-59.61 -102.2,0 -180.29,20.36 -234.23,61.04zm-593.37 -42.58l0 681.4 215.8 0 0 -269.72c0,-142.89 61.02,-214.35 183.1,-214.35 23.65,0 47.33,2.37 70.98,7.09l0 -208.67c-15.14,-5.68 -34.07,-8.51 -56.77,-8.51 -44.51,0 -84.46,11.13 -119.97,33.36 -35.48,22.24 -62.25,54.18 -80.2,95.81l-5.67 0 -8.52 -116.4 -198.76 0zm-180.36 -89.44c38.81,0 70.98,-12.53 96.53,-37.62 25.55,-25.06 38.35,-56.54 38.35,-94.4 0,-38.8 -12.8,-70.74 -38.35,-95.83 -25.55,-25.06 -57.72,-37.62 -96.53,-37.62 -39.73,0 -72.18,12.56 -97.23,37.62 -25.09,25.09 -37.62,57.02 -37.62,95.83 0,38.81 12.53,70.52 37.62,95.1 25.06,24.63 57.5,36.92 97.23,36.92z"/>
 </g>
</svg>
